<svg width="120" height="120" viewBox="0 0 120 120" fill="none" xmlns="http://www.w3.org/2000/svg">
<path d="M60 11.2505C50.3582 11.2505 40.9329 14.1096 32.916 19.4663C24.8991 24.8231 18.6507 32.4368 14.9609 41.3447C11.2711 50.2526 10.3057 60.0546 12.1867 69.5111C14.0678 78.9677 18.7108 87.6541 25.5286 94.4719C32.3464 101.29 41.0328 105.933 50.4894 107.814C59.9459 109.695 69.7479 108.729 78.6558 105.04C87.5637 101.35 95.1774 95.1014 100.534 87.0845C105.891 79.0676 108.75 69.6423 108.75 60.0005C108.736 47.0754 103.596 34.6835 94.4564 25.5441C85.317 16.4047 72.9251 11.2641 60 11.2505ZM60 101.25C51.8415 101.25 43.8663 98.8312 37.0827 94.2986C30.2992 89.766 25.0121 83.3236 21.89 75.7862C18.7679 68.2487 17.951 59.9547 19.5426 51.953C21.1343 43.9513 25.063 36.6012 30.8319 30.8323C36.6008 25.0634 43.9508 21.1347 51.9525 19.5431C59.9543 17.9515 68.2483 18.7683 75.7857 21.8905C83.3232 25.0126 89.7655 30.2997 94.2981 37.0832C98.8307 43.8667 101.25 51.842 101.25 60.0005C101.238 70.9369 96.8877 81.4217 89.1545 89.1549C81.4213 96.8881 70.9364 101.238 60 101.25ZM52.5 48.7505C52.5 49.745 52.1049 50.6989 51.4017 51.4021C50.6984 52.1054 49.7446 52.5005 48.75 52.5005H45V71.2505C45 72.245 44.6049 73.1989 43.9017 73.9021C43.1984 74.6054 42.2446 75.0005 41.25 75.0005C40.2555 75.0005 39.3016 74.6054 38.5984 73.9021C37.8951 73.1989 37.5 72.245 37.5 71.2505V52.5005H33.75C32.7555 52.5005 31.8016 52.1054 31.0984 51.4021C30.3951 50.6989 30 49.745 30 48.7505C30 47.7559 30.3951 46.8021 31.0984 46.0988C31.8016 45.3956 32.7555 45.0005 33.75 45.0005H48.75C49.7446 45.0005 50.6984 45.3956 51.4017 46.0988C52.1049 46.8021 52.5 47.7559 52.5 48.7505ZM90 48.7505V71.2505C90 72.245 89.6049 73.1989 88.9017 73.9021C88.1984 74.6054 87.2446 75.0005 86.25 75.0005C85.2555 75.0005 84.3016 74.6054 83.5984 73.9021C82.8951 73.1989 82.5 72.245 82.5 71.2505V58.7302L75.9375 66.2302C75.5856 66.6292 75.1528 66.9488 74.6679 67.1677C74.183 67.3866 73.6571 67.4998 73.125 67.4998C72.593 67.4998 72.067 67.3866 71.5821 67.1677C71.0972 66.9488 70.6644 66.6292 70.3125 66.2302L63.75 58.7302V71.2505C63.75 72.245 63.3549 73.1989 62.6517 73.9021C61.9484 74.6054 60.9946 75.0005 60 75.0005C59.0055 75.0005 58.0516 74.6054 57.3484 73.9021C56.6451 73.1989 56.25 72.245 56.25 71.2505V48.7505C56.2521 47.9896 56.4855 47.2474 56.9193 46.6224C57.3531 45.9973 57.9668 45.519 58.6789 45.251C59.391 44.9829 60.1677 44.9378 60.906 45.1216C61.6443 45.3055 62.3093 45.7095 62.8125 46.2802L73.125 58.0552L83.4375 46.2802C83.9408 45.7095 84.6057 45.3055 85.344 45.1216C86.0823 44.9378 86.8591 44.9829 87.5711 45.251C88.2832 45.519 88.8969 45.9973 89.3307 46.6224C89.7645 47.2474 89.998 47.9896 90 48.7505Z" fill="white"/>
</svg>
