<svg width="120" height="120" viewBox="0 0 120 120" fill="none" xmlns="http://www.w3.org/2000/svg">
<path d="M111.184 71.1889C110.87 70.3151 110.503 69.4618 110.082 68.6343L90.5867 24.2811C90.4023 23.854 90.1382 23.4658 89.8086 23.1374C88.4157 21.7441 86.7619 20.6389 84.9418 19.8849C83.1217 19.1309 81.1709 18.7428 79.2008 18.7428C77.2307 18.7428 75.2798 19.1309 73.4597 19.8849C71.6396 20.6389 69.9859 21.7441 68.593 23.1374C67.8922 23.8389 67.4978 24.7895 67.4961 25.7811V37.4999H52.4961V25.7811C52.4965 25.2885 52.3998 24.8007 52.2116 24.3454C52.0234 23.8902 51.7474 23.4765 51.3992 23.128C50.0063 21.7348 48.3526 20.6296 46.5324 19.8755C44.7123 19.1215 42.7615 18.7334 40.7914 18.7334C38.8213 18.7334 36.8705 19.1215 35.0504 19.8755C33.2303 20.6296 31.5765 21.7348 30.1836 23.128C29.854 23.4564 29.5899 23.8446 29.4055 24.2718L9.91016 68.6249C9.48963 69.4524 9.12171 70.3057 8.8086 71.1796C7.70469 74.2683 7.28947 77.5611 7.59201 80.8272C7.89456 84.0933 8.90756 87.2538 10.5601 90.0872C12.2125 92.9207 14.4646 95.3585 17.1583 97.23C19.8521 99.1015 22.9225 100.361 26.1545 100.921C29.3864 101.482 32.7017 101.328 35.8681 100.472C39.0346 99.6161 41.9755 98.0781 44.485 95.9659C46.9945 93.8536 49.0118 91.2183 50.3957 88.2444C51.7795 85.2705 52.4964 82.03 52.4961 78.7499V44.9999H67.4961V78.7499C67.4944 82.0304 68.2101 85.2715 69.5931 88.2463C70.976 91.2211 72.9927 93.8574 75.5018 95.9707C78.0109 98.084 80.9518 99.623 84.1184 100.48C87.285 101.337 90.6007 101.491 93.8331 100.932C97.0655 100.372 100.137 99.1127 102.831 97.2414C105.525 95.3701 107.778 92.9322 109.431 90.0986C111.084 87.265 112.097 84.1042 112.4 80.8378C112.703 77.5713 112.288 74.2781 111.184 71.1889ZM35.9539 28.0077C37.2042 26.955 38.7641 26.3395 40.3963 26.2549C42.0285 26.1703 43.6437 26.6212 44.9961 27.5389V61.9968C42.0683 59.3678 38.501 57.5544 34.6516 56.7383C30.8023 55.9222 26.806 56.132 23.0633 57.3468L35.9539 28.0077ZM29.9961 93.7499C27.0294 93.7499 24.1293 92.8701 21.6625 91.2219C19.1958 89.5737 17.2732 87.231 16.1379 84.4901C15.0026 81.7492 14.7055 78.7332 15.2843 75.8235C15.8631 72.9138 17.2917 70.2411 19.3895 68.1433C21.4873 66.0455 24.16 64.6169 27.0697 64.0381C29.9795 63.4593 32.9955 63.7564 35.7363 64.8917C38.4772 66.027 40.8199 67.9496 42.4681 70.4163C44.1164 72.8831 44.9961 75.7832 44.9961 78.7499C44.9961 82.7281 43.4157 86.5434 40.6027 89.3565C37.7897 92.1695 33.9743 93.7499 29.9961 93.7499ZM74.9961 27.5343C76.3485 26.6165 77.9637 26.1656 79.5959 26.2502C81.2281 26.3348 82.788 26.9503 84.0383 28.003L96.9289 57.3374C93.1858 56.1232 89.1893 55.9142 85.3399 56.7311C81.4905 57.548 77.9234 59.3623 74.9961 61.9921V27.5343ZM89.9961 93.7499C87.0294 93.7499 84.1293 92.8701 81.6625 91.2219C79.1958 89.5737 77.2732 87.231 76.1379 84.4901C75.0026 81.7492 74.7055 78.7332 75.2843 75.8235C75.8631 72.9138 77.2917 70.2411 79.3895 68.1433C81.4873 66.0455 84.16 64.6169 87.0697 64.0381C89.9794 63.4593 92.9954 63.7564 95.7363 64.8917C98.4772 66.027 100.82 67.9496 102.468 70.4163C104.116 72.8831 104.996 75.7832 104.996 78.7499C104.996 82.7281 103.416 86.5434 100.603 89.3565C97.7896 92.1695 93.9743 93.7499 89.9961 93.7499Z" fill="white"/>
</svg>
