<svg width="120" height="120" viewBox="0 0 120 120" fill="none" xmlns="http://www.w3.org/2000/svg">
<path d="M59.9961 52.5C56.8442 52.5011 53.798 53.6363 51.4141 55.6983C49.0303 57.7602 47.4681 60.6112 47.013 63.7301C46.558 66.8489 47.2405 70.0274 48.9358 72.6845C50.631 75.3416 53.2259 77.3 56.2461 78.2016V86.25C56.2461 87.2446 56.6412 88.1984 57.3444 88.9017C58.0477 89.6049 59.0015 90 59.9961 90C60.9907 90 61.9445 89.6049 62.6477 88.9017C63.351 88.1984 63.7461 87.2446 63.7461 86.25V78.2016C66.7663 77.3 69.3611 75.3416 71.0564 72.6845C72.7517 70.0274 73.4342 66.8489 72.9792 63.7301C72.5241 60.6112 70.9619 57.7602 68.5781 55.6983C66.1942 53.6363 63.148 52.5011 59.9961 52.5ZM59.9961 71.25C58.8836 71.25 57.796 70.9201 56.871 70.302C55.946 69.6839 55.225 68.8054 54.7993 67.7776C54.3735 66.7498 54.2621 65.6188 54.4792 64.5276C54.6962 63.4365 55.2319 62.4342 56.0186 61.6475C56.8053 60.8609 57.8076 60.3251 58.8987 60.1081C59.9899 59.891 61.1209 60.0024 62.1487 60.4282C63.1765 60.8539 64.055 61.5749 64.6731 62.4999C65.2912 63.4249 65.6211 64.5125 65.6211 65.625C65.6211 67.1168 65.0285 68.5476 63.9736 69.6025C62.9187 70.6574 61.4879 71.25 59.9961 71.25ZM97.4961 37.5H82.4961V26.25C82.4961 20.2826 80.1256 14.5597 75.906 10.3401C71.6864 6.12053 65.9635 3.75 59.9961 3.75C54.0287 3.75 48.3058 6.12053 44.0862 10.3401C39.8666 14.5597 37.4961 20.2826 37.4961 26.25V37.5H22.4961C20.507 37.5 18.5993 38.2902 17.1928 39.6967C15.7863 41.1032 14.9961 43.0109 14.9961 45V97.5C14.9961 99.4891 15.7863 101.397 17.1928 102.803C18.5993 104.21 20.507 105 22.4961 105H97.4961C99.4852 105 101.393 104.21 102.799 102.803C104.206 101.397 104.996 99.4891 104.996 97.5V45C104.996 43.0109 104.206 41.1032 102.799 39.6967C101.393 38.2902 99.4852 37.5 97.4961 37.5ZM44.9961 26.25C44.9961 22.2718 46.5764 18.4564 49.3895 15.6434C52.2025 12.8304 56.0178 11.25 59.9961 11.25C63.9743 11.25 67.7896 12.8304 70.6027 15.6434C73.4157 18.4564 74.9961 22.2718 74.9961 26.25V37.5H44.9961V26.25ZM97.4961 97.5H22.4961V45H97.4961V97.5Z" fill="white"/>
</svg>
